<?xml version="1.0" encoding="UTF-8" standalone="no"?>
<!-- Created with Inkscape (http://www.inkscape.org/) -->

<svg
   xmlns:dc="http://purl.org/dc/elements/1.1/"
   xmlns:cc="http://creativecommons.org/ns#"
   xmlns:rdf="http://www.w3.org/1999/02/22-rdf-syntax-ns#"
   xmlns:svg="http://www.w3.org/2000/svg"
   xmlns="http://www.w3.org/2000/svg"
   xmlns:sodipodi="http://sodipodi.sourceforge.net/DTD/sodipodi-0.dtd"
   xmlns:inkscape="http://www.inkscape.org/namespaces/inkscape"
   width="210mm"
   height="297mm"
   viewBox="0 0 210 297"
   version="1.1"
   id="svg8"
   inkscape:version="0.92.1 r15371"
   sodipodi:docname="bms.svg">
  <defs
     id="defs2">
    <clipPath
       clipPathUnits="userSpaceOnUse"
       id="clipPath18">
      <path
         d="M 0,841.891 H 595.277 V 0 H 0 Z"
         id="path16"
         inkscape:connector-curvature="0" />
    </clipPath>
  </defs>
  <sodipodi:namedview
     id="base"
     pagecolor="#ffffff"
     bordercolor="#666666"
     borderopacity="1.0"
     inkscape:pageopacity="0.0"
     inkscape:pageshadow="2"
     inkscape:zoom="5.9001859"
     inkscape:cx="164.86563"
     inkscape:cy="367.87182"
     inkscape:document-units="mm"
     inkscape:current-layer="layer1"
     showgrid="false"
     inkscape:window-width="1920"
     inkscape:window-height="1001"
     inkscape:window-x="-9"
     inkscape:window-y="-9"
     inkscape:window-maximized="1" />
  <metadata
     id="metadata5">
    <rdf:RDF>
      <cc:Work
         rdf:about="">
        <dc:format>image/svg+xml</dc:format>
        <dc:type
           rdf:resource="http://purl.org/dc/dcmitype/StillImage" />
        <dc:title></dc:title>
      </cc:Work>
    </rdf:RDF>
  </metadata>
  <g
     inkscape:label="Layer 1"
     inkscape:groupmode="layer"
     id="layer1">
    <path
       id="path4583"
       style="fill:none;stroke:#00ff00;stroke-width:0.23373918;stroke-miterlimit:4;stroke-dasharray:none"
       d="m 44.452541,196.73342 c 0.304933,-0.10482 1.67525,-0.56222 2.34001,-0.49552 0.750147,0.0739 2.248914,0.45741 2.91024,0.89499 v -1.04288 c 0,0 0.120074,-0.22184 -0.210022,-0.59158 0,0 1.319997,-0.0381 1.77016,-0.51763 l 0.24014,0.66553 v 2.32933 h 0.150179 l 0.210029,0.92434 0.179911,-0.0382 v 0.70365 h 1.020019 v 1.6276 m -16.741811,-0.18523 h 1.260154 v -0.29579 l 0.960169,-0.33276 v -0.66591 c 0,0 -0.540124,0.14789 -0.540124,-0.22184 0,-0.36974 1.230041,-0.51763 1.230041,-0.51763 v -3.40158 c 0,0 -0.599961,-0.22184 -0.51,-0.51763 0.08995,-0.29578 0.51,-0.40671 0.51,-0.40671 v -0.40708 c 0,0 -0.838575,-0.25882 -0.809984,-0.59158 0.02861,-0.33277 0.240134,-0.51763 0.419285,-0.51763 h 0.991048 v -0.99829 c 0,0 0.240134,-0.29579 0.571757,-0.25882 l 0.469223,-4.33087 0.308748,4.25692 c 0,0 0.299978,0.1479 0.479889,0.40672 v 1.14618 c 0,0 1.140086,0.44369 1.170204,0.96131 0.03011,0.51763 -0.360214,0.55461 -0.360214,0.55461 h -0.360208 v 0.25881 l -0.03011,0.18487 c 0,0 0.360207,0.0739 0.450163,0.33276 0.08996,0.25882 -0.150179,0.25882 -0.150179,0.25882 h -0.210029 l -0.03011,2.47761 h 1.109963 v -1.24986 h 1.350115 c 0,0 0,-0.37698 -0.210029,-0.37698 m -3.713019,-7.63257 c -0.146421,-0.14469 -0.307221,-0.27407 -0.479895,-0.38613 l -0.245476,0.11664 0.01521,-0.008 -0.569096,0.29465 c 0.0019,0.39032 0.277882,1.14351 0.377361,1.40385 l 0.0031,0.002 -0.07394,0.12273 c -0.295509,0.19995 -0.578726,0.41748 -0.848112,0.65142 v 0.008 c -0.566802,-0.53364 -1.288741,-0.70364 -1.288741,-0.70364 l -0.662471,0.62779 c 0.119305,0.40671 0.667807,1.13551 0.787117,1.2914 l -0.0088,0.0221 c -0.209499,0.26837 -0.403698,0.54834 -0.581669,0.83858 l -0.03813,-0.0312 c -0.720415,-0.31142 -1.466367,-0.21994 -1.466367,-0.21994 l -0.404042,0.81799 c 0.242425,0.32628 0.958265,0.79437 1.162573,0.92435 h 0.02782 c -0.13558,0.35419 -0.248507,0.71666 -0.338098,1.08519 l -0.02211,0.0229 c -0.776445,-0.10291 -1.467128,0.1864 -1.467128,0.1864 l -0.167334,0.89689 c 0.343054,0.26682 1.251004,0.53974 1.408428,0.58624 l -0.0031,0.0351 c -0.01472,0.34843 -0.0089,0.69743 0.01753,1.04517 l -0.04955,0.0382 c -0.743284,0.16199 -1.281116,0.63617 -1.281116,0.63617 l 0.129216,0.90681 c 0.372405,0.12807 1.186968,0.11435 1.457218,0.10672 l 0.04231,0.0156 c 0.08591,0.31023 0.188464,0.61561 0.307224,0.9148 l -0.0038,0.0465 c -0.697162,0.3785 -1.086338,1.03488 -1.086338,1.03488 l 0.40023,0.8199 c 0.432248,0.008 1.318087,-0.30913 1.478181,-0.36782 l 0.003,0.007 c 0.197701,0.30714 0.414103,0.60184 0.647994,0.88241 l 0.0037,0.0198 c -0.542791,0.56338 -0.720038,1.29027 -0.720038,1.29027 l 0.622459,0.66705 c 0.39985,-0.11436 1.113017,-0.63846 1.287598,-0.76997 l 0.0187,-0.007 c 0.276143,0.22498 0.565593,0.43309 0.866786,0.62322 l 0.01677,0.029 c -0.331243,0.6945 -0.279403,1.42177 -0.279403,1.42177 l 0.796266,0.44559 c 0.330856,-0.2207 0.819901,-0.88584 0.972754,-1.09968 l 0.0069,-0.0312 c 0.367712,0.14509 0.744625,0.26568 1.128269,0.36097 l 0.005,0.0122 c -0.114351,0.77187 0.158563,1.46408 0.158563,1.46408 l 0.893469,0.18486 c 0.272154,-0.33924 0.565275,-1.243 0.614061,-1.39737 l 0.05909,-0.0152 c 0.336934,0.0148 0.674441,0.0103 1.01087,-0.0133 l 0.03815,0.0347 c 0.130358,0.73718 0.566422,1.28493 0.566422,1.28493 l 0.908709,-0.0831 c 0.152467,-0.38117 0.176863,-1.24681 0.180677,-1.48009 l 0.04494,-0.0533 c 0.279527,-0.0762 0.553712,-0.16607 0.822568,-0.26949 l 0.07623,0.0382 c 0.34725,0.68801 0.955981,1.09281 0.955981,1.09281 l 0.838576,-0.35792 c 0.02817,-0.4048 -0.209643,-1.22394 -0.280544,-1.45721 l 0.03815,-0.13646 c 0.251609,-0.16085 0.494978,-0.33425 0.729185,-0.51954 l 0.07623,0.016 c 0.535163,0.53821 1.221272,0.73528 1.221272,0.73528 l 0.69145,-0.59539 c -0.11245,-0.46275 -0.746338,-1.35811 -0.746338,-1.35811 l 0.05604,-0.0622 c 0.197587,-0.23628 0.382709,-0.48273 0.554598,-0.73832 l 0.106734,-0.0382 c 0.668575,0.35068 1.377167,0.33619 1.377167,0.33619 l 0.485616,-0.77263 c -0.205067,-0.34306 -0.853827,-0.87288 -1.053939,-1.03183 l -0.04762,-0.12655 c 0.123913,-0.30531 0.230928,-0.61719 0.320566,-0.93425 l 0.170386,-0.0416 c 0.45755,0.0327 0.916763,-0.0338 1.346295,-0.19477 l 0.170386,-0.89651 c -0.289693,-0.22528 -0.981518,-0.45741 -1.284169,-0.55347 l -0.08881,-0.12921 c 0.0202,-0.29928 0.02512,-0.5994 0.0149,-0.89919 l 0.137987,-0.10482 c 0.453579,-0.0873 0.882774,-0.27209 1.257866,-0.54165 l -0.07014,-0.90985 c -0.340773,-0.14256 -1.076815,-0.18639 -1.390131,-0.19897 l -0.195924,-0.0976 c -0.08516,-0.34094 -0.190276,-0.67656 -0.314849,-1.00515 l 0.04538,-0.1254 c 0.655997,-0.36479 1.031837,-0.95903 1.031837,-0.95903 l -0.376607,-0.83096 c -0.357907,-0.0168 -1.033732,0.18068 -1.34668,0.2794 l -0.174575,-0.002 c -0.170125,-0.26704 -0.354362,-0.52482 -0.55193,-0.77225 l 0.06177,-0.18868 c 0.501623,-0.55498 0.666674,-1.23538 0.666674,-1.23538 l -0.621316,-0.6659 c -0.387646,0.1113 -1.069946,0.60987 -1.269678,0.75891 l -0.105968,0.0382 c -0.287461,-0.23815 -0.589696,-0.45789 -0.904901,-0.6579 l -0.01409,-0.10139 c 0.299603,-0.68611 0.238613,-1.38556 0.238613,-1.38556 l -0.803888,-0.43415 c -0.318278,0.21955 -0.779493,0.86144 -0.941876,1.09586 l -0.05716,0.0286 c -0.329772,-0.12756 -0.666811,-0.2355 -1.009342,-0.32322 l -0.0503,-0.10673 c 0.08233,-0.75472 -0.194782,-1.41377 -0.194782,-1.41377 l -0.897278,-0.16619 c -0.238988,0.31065 -0.48523,1.08024 -0.564889,1.34287 l -0.101393,0.0381 c -0.345485,-0.0149 -0.691544,-0.01 -1.036406,0.016 l -0.04189,-0.0636 c -0.147891,-0.73033 -0.593105,-1.26511 -0.593105,-1.26511 l -0.906802,0.10329 c -0.129217,0.34306 -0.146751,1.07567 -0.147892,1.39166 l -0.06252,0.14409 c -0.352441,0.0999 -0.698438,0.22137 -1.03602,0.36363 l -0.07319,-0.051 c -0.0599,-0.10611 -0.127029,-0.208 -0.200879,-0.30494 m -7.87775,8.68696 c 0.01014,-6.70263 5.212899,-11.64326 11.643258,-11.64326 6.430359,0 11.64326,5.2129 11.64326,11.64326 0,6.43036 -5.386466,11.81122 -11.64326,11.64211 -6.256794,-0.16911 -11.653395,-4.93948 -11.643258,-11.64211 z m 3.051275,2.45245 1.528115,0.0168 m 0.805036,-0.46504 -3.887947,0.0133 m 20.224186,0.0446 -1.756435,0.006 m -0.05716,-0.45091 h 1.860116 m -20.393041,0 h 4.105594 m -0.571757,-0.4696 -3.341727,-0.0335 m 20.286697,-0.0248 -2.898808,-0.029 m -0.30494,-0.52447 1.82963,0.011 m -17.831577,0.007 3.461415,0.0209 m 0.05834,-0.54506 -3.493818,-0.0419 m 7.494592,0.0449 -1.143521,-0.0137 m 11.471734,0.0793 -1.884892,-0.0225 m -0.266818,-0.50007 2.151336,0.01 m -11.451913,0.0259 1.105394,0.005 m -7.470957,-0.10871 3.486576,0.0152 m 12.179564,-0.38344 3.188496,0.0217 m -12.50852,-0.0838 1.086345,0.007 m -8.609518,-0.0595 4.569483,0.0309 m 12.330509,-0.6331 3.453027,0.0324 m -6.521075,-0.061 1.257866,0.0118 m -7.54719,-0.0709 2.992193,0.0282 m -10.645734,-0.10061 4.737579,0.0446 m 12.254654,-0.83441 h 1.783879 m -10.760421,-9.3e-4 h 7.127905 m -13.521671,-10e-4 h 3.13475 m 3.296751,-0.84163 10.476877,0.0995 m -16.874834,-0.1601 2.758151,0.0263 m 3.449605,-1.02533 11.744267,0.0762 m -18.79708,-0.12159 3.145809,0.0202 m 3.201834,-1.46064 10.062922,0.008 m -14.200915,-0.011 h 2.346491 m 1.162569,-2.08691 8.538238,0.009 m -9.923027,-0.0102 h 0.908329"
       inkscape:connector-curvature="0"
       sodipodi:nodetypes="cccccccccccccccccccscccccssccccccccccccscccccccccccccccccccccccccccccccccccccccccccccccccccccccccccccccccccccccccccccccccccccccccccccccccccccccccccccccccccccccccccccccccccczzzzzcccccccccccccccccccccccccccccccccccccccccccccccccccccccccccccccccc" />
  </g>
</svg>
